<svg viewBox="0 0 200 200" xmlns="http://www.w3.org/2000/svg">
  <path fill="#FBA81F" d="M33.3,-59.5C40.6,-53.4,42.3,-39.4,51.5,-28.2C60.7,-16.9,77.5,-8.5,78.4,0.5C79.3,9.6,64.5,19.1,56.9,33C49.2,47,48.7,65.2,40.4,72.2C32.1,79.3,16.1,75,1,73.3C-14.1,71.6,-28.2,72.4,-39.7,67.2C-51.2,62.1,-60.1,51,-62.9,38.8C-65.6,26.6,-62,13.3,-59.7,1.4C-57.3,-10.5,-56,-21.1,-50.7,-28.8C-45.4,-36.4,-36,-41.2,-26.9,-46.3C-17.7,-51.4,-8.9,-56.7,2,-60.2C13,-63.8,25.9,-65.6,33.3,-59.5Z" transform="translate(100 100)" />
</svg>